<svg width="263" height="31" viewBox="0 0 263 31" fill="none" xmlns="http://www.w3.org/2000/svg">
<path fill-rule="evenodd" clip-rule="evenodd" d="M154.017 0H152.216V30.034H154.017V0ZM175.376 6.79934V18.5183C175.376 18.8515 175.436 19.1266 175.556 19.3466C175.653 19.524 175.787 19.6653 175.961 19.7747C176.044 19.824 176.14 19.8679 176.25 19.9093C176.473 19.9934 176.755 20.0614 177.107 20.1281C177.992 20.119 178.582 20.0643 178.857 19.9653C179.359 19.7747 179.609 19.2824 179.609 18.4902V12.4268H182.478V18.4902C182.478 19.2824 182.729 19.7747 183.23 19.9653C183.537 20.0747 184.233 20.1294 185.292 20.1294H186.489C187.548 20.1294 188.244 20.0747 188.55 19.9653C189.079 19.7747 189.33 19.2824 189.33 18.4914V12.4268H192.171V18.4914C192.171 19.2559 192.422 19.7481 192.951 19.9653C193.063 20.0096 193.242 20.044 193.486 20.0709C193.715 20.0949 194.001 20.112 194.344 20.1215V20.1028C195.319 20.1028 195.931 20.0763 196.182 20.0216C196.438 19.9561 196.654 19.8509 196.828 19.7067C196.898 19.6492 196.96 19.5853 197.016 19.5161C197.172 19.3226 197.275 19.081 197.324 18.7918L197.436 18.2461V16.8803C197.436 15.2411 197.881 14.066 198.773 13.3284C199.58 12.7281 200.889 12.3999 202.7 12.3999C204.482 12.3999 205.791 12.7281 206.626 13.3563C207.546 14.066 207.991 15.2677 207.991 16.9069V18.382C207.991 20.0481 207.574 21.2511 206.71 21.9343C206.162 22.3996 205.398 22.7009 204.434 22.853C204.251 22.8824 204.062 22.9064 203.865 22.9238L203.648 22.9412C203.364 22.9611 203.067 22.9719 202.755 22.9719C202.338 22.9719 202.031 22.9719 201.808 22.9437C200.555 22.889 199.58 22.6171 198.939 22.1249L198.661 21.9343L198.327 21.6061C197.826 22.4158 196.809 22.8505 195.234 22.9304V22.9706H195.012C193.174 22.9706 191.753 22.5065 190.75 21.578C189.747 22.5065 188.327 22.9706 186.489 22.9706H184.428V22.9532C183.054 22.8612 181.921 22.4022 181.03 21.5767C180.222 22.3462 179.128 22.797 177.716 22.9292V22.9984H177.242C175.543 22.9984 174.317 22.6971 173.593 22.0689C173.408 21.9087 173.246 21.7259 173.109 21.522C172.854 21.1445 172.679 20.6924 172.586 20.1629C172.533 19.8588 172.507 19.5293 172.507 19.173V6.79934H175.376ZM202.755 14.7767C202.003 14.7767 201.446 14.913 201.056 15.1864C200.796 15.3812 200.612 15.6411 200.498 15.9759C200.405 16.2522 200.36 16.5787 200.36 16.9616V18.3555C200.36 19.2024 200.555 19.8028 200.917 20.1575C201.279 20.5135 201.892 20.6763 202.7 20.6763C204.259 20.6763 205.039 19.9122 205.039 18.3555V16.9616C205.039 15.5146 204.259 14.7767 202.755 14.7767ZM182.395 10.1312H179.832V7.78227H182.395V10.1312ZM190.277 27.7242H187.714V25.3755H190.277V27.7242ZM191.307 27.7242H193.87V25.3755H191.307V27.7242ZM227.739 12.3721V17.8086C227.739 18.1367 227.767 18.4367 227.85 18.7649C228.018 19.4478 228.407 19.8841 229.048 20.0481C229.291 20.0962 229.77 20.1227 230.536 20.1294L230.887 20.1307L232.948 20.1294C234.006 20.1294 234.702 20.0747 235.009 19.9653C235.145 19.9135 235.263 19.8401 235.362 19.744C235.628 19.4854 235.761 19.0678 235.761 18.4914V12.4268H238.407V18.4914C238.407 19.0997 238.316 19.6479 238.138 20.1389C237.884 20.835 237.452 21.4126 236.847 21.878C235.845 22.6156 234.563 22.9706 232.948 22.9706L230.302 22.9719L230.159 22.9706C230.141 22.9706 230.122 22.9709 230.104 22.9712H230.104C230.068 22.9715 230.031 22.9722 229.995 22.9706C229.614 22.9545 229.259 22.9039 228.925 22.8264C228.496 22.7278 228.104 22.577 227.739 22.3702V23.1906C227.739 24.4739 227.294 25.5393 226.374 26.3866C225.566 27.1788 224.508 27.7242 223.144 28.0242C221.89 28.2977 220.609 28.3258 219.272 28.107C217.907 27.8883 216.821 27.4507 216.013 26.796C215.149 26.085 214.732 24.8833 214.732 23.1906V15.6787H217.629V23.2441C217.629 24.0641 217.824 24.6376 218.214 24.9658C219.133 25.7302 220.442 26.0037 222.141 25.7302C223.951 25.4302 224.87 24.6098 224.87 23.2441V12.3721H227.739ZM219.383 11.8811H222.364V9.55902H219.383V11.8811ZM231.221 27.7242H233.783V25.3755H231.221V27.7242ZM237.404 27.7242H234.842V25.3755H237.404V27.7242ZM250.857 20.1841H251.497V20.1575H257.848C259.213 20.1575 259.909 19.7481 259.909 18.9558C259.909 18.4636 259.881 18.1089 259.797 17.862C259.714 17.6166 259.518 17.3979 259.185 17.2069L255.62 15.0489C254.533 14.366 253.865 13.8472 253.558 13.4644C253.225 13.0003 253.057 12.3721 253.057 11.553C253.057 9.96843 253.363 8.848 253.976 8.16513C254.506 7.5635 255.424 7.23692 256.706 7.15409L262.806 6.85403V9.39494L258.237 9.66714C257.403 9.72183 256.873 9.8309 256.623 10.0497C256.26 10.2953 256.065 10.6235 256.01 11.0876C255.954 11.3889 256.037 11.6611 256.176 11.9624C256.277 12.14 256.435 12.3025 256.652 12.4612C256.735 12.5226 256.828 12.5839 256.928 12.6456L261.078 15.2677C261.942 15.8133 262.471 16.2787 262.694 16.6334C262.776 16.7937 262.842 17.0043 262.893 17.2657C262.963 17.6325 263 18.0969 263 18.6542C263 20.2122 262.694 21.3314 262.081 21.9874C261.497 22.6703 260.55 22.9984 259.24 22.9984H250.829V24.3645C250.829 25.1194 250.747 25.7555 250.581 26.2702C250.41 26.7985 250.15 27.2013 249.798 27.4789C249.436 27.7511 248.656 28.0242 247.43 28.3245C246.205 28.598 245.119 28.7621 244.144 28.7621L242.835 26.1678C243.135 26.1678 243.509 26.1529 243.952 26.1235L244.603 26.0758C244.852 26.0556 245.116 26.0315 245.397 26.0037C246.512 25.8943 247.152 25.7849 247.347 25.6209C247.765 25.2661 247.96 24.747 247.96 24.0363V23.0253H244.673C243.252 23.0253 242.278 22.7796 241.693 22.3155C241.163 21.878 240.746 21.2498 240.467 20.4575C240.334 20.0788 240.239 19.6868 240.186 19.2824C240.127 18.8424 240.118 18.3874 240.161 17.9179C240.245 17.0163 240.44 16.1693 240.802 15.3489C241.136 14.5301 241.721 13.8751 242.529 13.3284C242.924 13.0603 243.353 12.8656 243.816 12.736C244.297 12.6 244.815 12.5362 245.369 12.5362H250.857V20.1841ZM247.96 14.9677H245.481C244.311 14.9677 243.503 15.4865 243.03 16.524C242.64 17.371 242.612 18.218 242.919 19.0371C243.225 19.7747 243.699 20.1575 244.395 20.1575H247.96V14.9677ZM17.5907 10.8144C18.4509 9.81731 19.9758 9.31874 22.1655 9.31874C24.3552 9.31874 25.88 9.81731 26.7403 10.8144C27.6137 11.8116 28.0504 13.6395 28.0504 16.2983C28.0504 18.9574 27.6137 20.7854 26.7403 21.7825C25.88 22.7667 24.3552 23.2589 22.1655 23.2589C19.9758 23.2589 18.4509 22.7667 17.5907 21.7825C16.7434 20.7854 16.3199 18.9574 16.3199 16.2983C16.3199 13.6395 16.7434 11.8116 17.5907 10.8144ZM22.1655 11.7158C21.1357 11.7158 20.4318 12.0351 20.0541 12.6743C19.676 13.3136 19.4871 14.5216 19.4871 16.2983C19.4871 18.0754 19.676 19.2834 20.0541 19.9223C20.4318 20.5489 21.1357 20.8619 22.1655 20.8619C23.2081 20.8619 23.9121 20.5489 24.2769 19.9223C24.655 19.2834 24.8438 18.0754 24.8438 16.2983C24.8438 14.5216 24.655 13.3136 24.2769 12.6743C23.9121 12.0351 23.2081 11.7158 22.1655 11.7158ZM5.748 9.33803C7.23389 9.33803 8.60245 9.49136 9.8537 9.79802L9.59953 12.0224C8.56987 11.9456 7.286 11.9074 5.748 11.9074C4.7574 11.9074 4.07963 12.2207 3.71468 12.8469C3.34974 13.4606 3.16725 14.611 3.16725 16.2983C3.16725 17.9859 3.34974 19.1364 3.71468 19.75C4.07963 20.3633 4.7574 20.6703 5.748 20.6703C7.58578 20.6703 8.96089 20.6128 9.87327 20.4977L10.1274 22.7028C8.94132 23.0607 7.48151 23.2396 5.748 23.2396C3.63649 23.2396 2.15061 22.7221 1.29038 21.6864C0.430115 20.651 0 18.855 0 16.2983C0 13.7416 0.430115 11.9456 1.29038 10.9102C2.15061 9.8622 3.63649 9.33803 5.748 9.33803ZM35.0367 23.0095H38.0473V9.58715H35.0367V23.0095ZM57.0687 9.58715V21.9358C57.0687 22.6516 56.71 23.0095 55.9932 23.0095H54.1164C53.8035 23.0095 53.5624 22.9456 53.3929 22.8179C53.2237 22.6772 53.0606 22.4471 52.9043 22.1274L49.307 14.9752C48.8639 14.0679 48.5834 13.3711 48.4661 12.8852H48.2512C48.3424 13.5501 48.3878 14.2658 48.3878 15.0328V23.0095H45.5138V10.6418C45.5138 9.93871 45.879 9.58715 46.6087 9.58715H48.4465C48.7465 9.58715 48.9812 9.65765 49.1504 9.79802C49.3328 9.92606 49.5023 10.1433 49.6587 10.4502L53.1389 17.4105C53.3603 17.8452 53.6929 18.561 54.1361 19.5581H54.3314C54.2534 18.561 54.2141 17.8133 54.2141 17.3147V9.58715H57.0687ZM78.4462 9.58715H75.5135C74.8747 9.58715 74.4641 9.90045 74.2817 10.5267L72.6396 17.2379C72.5741 17.4937 72.5026 17.8579 72.4243 18.3308C72.3463 18.8038 72.3005 19.0659 72.2876 19.1171H72.0333C71.9031 18.2733 71.7793 17.647 71.662 17.2379L70.0002 10.5267C69.8436 9.90045 69.4462 9.58715 68.8074 9.58715H65.8944C65.1644 9.58715 64.7863 9.95799 64.7605 10.6994L64.2716 23.0095H67.1262L67.5172 11.8881H67.8692L69.9416 20.21C70.0979 20.8493 70.5085 21.1689 71.1731 21.1689H73.1672C73.806 21.1689 74.2166 20.8493 74.399 20.21L76.4518 11.8881H76.7844L77.2533 23.0095H80.108L79.5604 10.6994C79.5214 9.95799 79.1498 9.58715 78.4462 9.58715ZM90.1829 9.52961C93.1806 9.52961 95.2988 9.59379 96.5371 9.72152L96.4001 11.9074H91.1408C90.5152 11.9074 90.2026 12.2396 90.2026 12.9045V14.9563H95.6572V17.0846H90.2026V19.6732C90.2026 20.0311 90.2741 20.2931 90.4175 20.4594C90.561 20.6128 90.802 20.6893 91.1408 20.6893H96.4001L96.5371 22.8754C95.2988 23.0032 93.1806 23.067 90.1829 23.067C89.2705 23.067 88.5408 22.8242 87.9932 22.3383C87.4459 21.8401 87.1719 21.1815 87.1719 20.3633V12.2333C87.1719 11.4025 87.4459 10.7443 87.9932 10.2583C88.5408 9.77273 89.2705 9.52961 90.1829 9.52961ZM114.963 21.9358V9.58715H112.109V17.3147C112.109 17.8133 112.148 18.561 112.226 19.5581H112.031C111.587 18.561 111.255 17.8452 111.033 17.4105L107.553 10.4502C107.397 10.1433 107.228 9.92606 107.045 9.79802C106.876 9.65765 106.641 9.58715 106.341 9.58715H104.504C103.773 9.58715 103.409 9.93871 103.409 10.6418V23.0095H106.283V15.0328C106.283 14.2658 106.237 13.5501 106.146 12.8852H106.361C106.478 13.3711 106.758 14.0679 107.201 14.9752L110.799 22.1274C110.955 22.4471 111.118 22.6772 111.288 22.8179C111.457 22.9456 111.698 23.0095 112.011 23.0095H113.888C114.605 23.0095 114.963 22.6516 114.963 21.9358ZM126.057 9.58715H128.911C129.446 9.58715 129.798 9.84292 129.967 10.3541L133.916 23.0095H130.827L129.85 19.4813H125.138L124.141 23.0095H121.052L125.001 10.3541C125.171 9.84292 125.523 9.58715 126.057 9.58715ZM127.758 11.8116H127.23C127.061 12.5403 126.956 12.962 126.917 13.0771L125.783 17.1997H129.185L128.032 13.0771C127.901 12.6554 127.81 12.2333 127.758 11.8116Z" fill="white"/>
</svg>
